
<svg xmlns="http://www.w3.org/2000/svg" xml:space="preserve" width="2.251in" height="2.32527in" version="1.1" style="shape-rendering:geometricPrecision; text-rendering:geometricPrecision; image-rendering:optimizeQuality; fill-rule:evenodd; clip-rule:evenodd"
viewBox="0 0 2251 2325.28">

 <g id="Layer_x0020_1">
  <metadata id="CorelCorpID_0Corel-Layer"/>
  <path fill="red" d="M-0 0l916.79 0 0 727.91 417.41 -727.91 916.8 0 0 916.8 -2250.2 1408.48 807.68 -1408.48 -808.48 0 0 -916.8zm1830.44 2107.93l57.66 0 0 117.74 41.59 0 0 -117.74 58.98 0 0 -39.61 -158.23 0 0 39.61zm298.2 73.28l-54.8 -112.9 -67.56 0 0 157.35 41.59 0 0 -114 53.92 114 53.48 0 53.92 -114 0 114 41.81 0 0 -157.35 -67.78 0 -54.58 112.9z"/>
 </g>
</svg>
